<?xml version="1.0" encoding="utf-8"?>

<!DOCTYPE svg PUBLIC "-//W3C//DTD SVG 1.1//EN" "http://www.w3.org/Graphics/SVG/1.1/DTD/svg11.dtd">
<!-- Uploaded to: SVG Repo, www.svgrepo.com, Generator: SVG Repo Mixer Tools -->
<svg height="800px" width="800px" version="1.1" id="_x32_" xmlns="http://www.w3.org/2000/svg" xmlns:xlink="http://www.w3.org/1999/xlink" 
	 viewBox="0 0 512 512"  xml:space="preserve">
<g>
	<path class="st0" d="M425.098,246.562c0.395,0.034,0.72,0.24,1.096,0.317c0.498-0.025,0.985-0.12,1.492-0.077L425.098,246.562z"/>
	<path class="st0" d="M458.787,179.417c-0.086,0.162-0.232,0.274-0.318,0.428c-0.094,0.223-0.137,0.471-0.248,0.685L458.787,179.417
		z"/>
	<path class="st0" d="M448.711,300.966c0,0.284-0.112,0.541-0.137,0.814c0.026,0.291,0.137,0.557,0.137,0.848V300.966z"/>
	<path class="st0" d="M470.764,388.082l1.114-7.411c0.496-3.256-0.532-6.555-2.794-8.944c-2.262-2.391-9.99-3.761-11.772-4.652
		l-6.305-3.161c-2.297-1.148-4.113-3.094-5.09-5.458l-2.416-5.792c-1.456-3.504-0.96-7.522,1.32-10.555l0.514-0.685
		c3.581-7.437-14.48-16.261-10.538-24.718c1.302-2.802,3.856-4.824,6.854-5.62l-0.909,0.24c4.421-1.183,7.48-5.046,7.831-9.544
		c-0.162-1.97-0.771-3.889-1.936-5.492l-5.174-7.034c-1.731-2.356-2.416-5.321-1.902-8.2c0.514-2.878,1.37-9.322-0.668-14.068
		l-3.187-7.437c-0.565-1.327-0.856-2.758-0.856-4.214v1.902c0-5.141-3.71-9.365-8.654-10.359c-3.538,0.171-6.819,1.988-8.67,5.081
		l-3.068,5.115c-2.758,4.601-12.371,0.232-10.692-5.029l5.26-16.518c0.412-1.276,1.045-2.468,1.902-3.513l17.992-22.071
		c2.039-2.526,2.844-5.843,2.159-9.03c-0.686-3.179,5.004-3.504,4.232-6.528c-0.754-3.015,6.1-10.555,10.35-9.579l1.131,0.257
		c4.635,1.071,9.338-1.106,11.677-5.218c0.232-0.548,0.472-1.096,0.609-1.67l14.719-63.075c0.669-2.913,0.103-5.98-1.576-8.448
		c-1.679-2.484-4.318-4.146-7.283-4.584l-36.481-5.474c-1.593-0.24-3.136-0.84-4.472-1.764L407.963,83.81
		c-1.388-0.951-2.964-1.559-4.626-1.782l-22.688-3.101c-1.662-0.223-3.238-0.832-4.61-1.774L357.791,64.67
		c-2.313-1.585-3.908-4.001-4.456-6.752l0.052,0.291c-0.994-5.004-8.894-8.079-10.573-7.077l0.189-0.12
		c-2.605,1.576-5.757,1.954-8.671,1.062c-2.913-0.899-5.295-2.999-6.562-5.757l-0.548-1.149c-1.285-2.793-3.701-4.9-6.648-5.774
		l-5.38-1.62c-1.697-0.505-3.239-1.431-4.507-2.681l-8.191-8.208c-0.822-0.814-1.491-1.756-2.005-2.785l-2.193-4.36
		c-2.005-4.018-5.861-6.409-5.861-6.409c-5.122,0.574-9.921-2.57-11.429-7.497l0.532,1.722c-1.662-5.406-7.248-8.585-12.749-7.258
		l-20.528,4.944c-3.838,0.926-6.854,3.89-7.848,7.711l-10.83,41.331c-0.892,3.384-3.376,6.117-6.648,7.334l-23.596,8.739
		c-3.256,1.208-5.723,3.924-6.631,7.283l-1.885,7.111c-1.062,3.941-4.25,6.94-8.259,7.745l-10.007,1.997
		c-1.542,0.317-3.153,0.274-4.696-0.111l-16.998-4.25c-3.65-0.908-6.546-3.658-7.642-7.248l-1.199-3.872
		c-1.251-4.087-4.815-7.034-9.065-7.506l-1.422-0.154c-3.358-0.377-6.7,0.856-9.013,3.324c-2.297,2.467-3.308,5.895-2.708,9.219
		l5.603,31.255c0.429,2.433-4.387,2.715-5.603,6.785c-1.234,4.061-4.73,7.017-8.945,7.54l-15.747,0.548
		c-2.776,0.154-5.483-0.789-7.574-2.605l-12.286-10.641c-2.159-1.859-4.952-2.794-7.779-2.588l-8.671,0.617
		c-2.913,0.206-5.602,1.593-7.47,3.821l0.411-0.479c-2.364,2.827-6.014,4.249-9.664,3.761l-11.155-1.482
		c-1.234-0.171-2.502-0.12-3.736,0.154l-8.516,1.902c-3.067,0.676-4.746,3.444-7.145,5.449c-2.536,2.107-2.416,4.13-2.416,4.13
		c1.422,3.564,5.209,6.168,5.209,6.168c3.41,0.488,8.002,3.787,11.79,5.672c9.664,5.252-3.702,8.276-4.198,11.763
		c-0.498,3.487,3.341,6.666,5.928,9.056l3.838,3.547c0.771,0.694,1.628,1.285,2.554,1.731l65.439,32.18
		c4.421,2.159,6.786,7.06,5.758,11.857l-0.942,4.37c-0.686,3.222,0.137,6.58,2.244,9.108l20.272,24.323
		c1.062,1.26,2.382,2.262,3.889,2.93l1.645,0.737c4.387,1.945,6.94,6.564,6.255,11.31l-2.005,14.102
		c-0.394,2.776,0.309,5.604,1.988,7.874l13.417,18.206c1.062,1.448,1.748,3.136,1.987,4.918l1.748,12.851
		c0.429,3.067,1.663,6.7,6.7,10.059c2.57,1.713,0.428,5.038,0.428,5.038c-5.552,0-13.417-7.163-13.914-12.68l-1.251-13.759
		c-0.24-2.708-4.232-4.807-7.916-3.513c-3.667,1.302-6.357,4.498-6.991,8.344l-2.416,14.497c-0.462,2.682,2.177,14.256-0.942,17.897
		l-0.531,0.626c-1.148,1.337-1.954,2.93-2.331,4.644l-9.047,40.713c-0.291,1.354-0.857,2.63-1.645,3.77l-4.712,6.786
		c-3.102,4.489-2.348,10.58,1.764,14.17l11.155,9.768c1.183,1.036,2.588,1.799,4.113,2.236l61.789,17.658
		c3.958,1.131,8.208-0.111,10.95-3.187l0.96-1.08c2.827-3.178,7.265-4.387,11.309-3.076l33.191,10.736
		c1.954,0.633,3.685,1.816,4.987,3.41l6.134,7.488c2.039,2.493,5.072,3.941,8.293,3.941h23.596c5.792,0,10.538-4.601,10.71-10.384
		l0.788-24.932c0.103-3.179,1.594-6.152,4.113-8.105l21.333-16.707c2.348-1.834,5.363-2.613,8.328-2.134l49.179,8.011
		c0.257,0.034,0.496,0.086,0.737,0.146l37.544,8.833c3.136,0.737,6.426,0.034,8.962-1.919l35.384-27.057
		C468.896,393.326,470.352,390.841,470.764,388.082z"/>
	<path class="st0" d="M502.738,462.398l-4.746-16.612c-0.085-0.318-0.137-0.651-0.137-0.985v-12.784c0-1.062-0.48-2.082-1.302-2.758
		c-0.814-0.66-1.851-0.917-2.88-0.737c-1.311,0.3-2.339,1.285-2.672,2.587l-1.645,6.58c-0.206,0.848-0.72,1.594-1.44,2.082
		l-17.821,12.243c-0.788,0.548-1.32,1.388-1.491,2.331l-3.324,18.814c-0.12,0.737-0.017,1.49,0.309,2.168l14.153,29.498
		c0.309,0.634,0.789,1.165,1.389,1.525l8.584,5.14c0.822,0.498,1.799,0.634,2.724,0.395c0.926-0.232,1.714-0.823,2.194-1.654
		l6.546-11.224c0.291-0.505,0.462-1.088,0.48-1.67l1.217-33.825C502.893,463.135,502.842,462.758,502.738,462.398z"/>
</g>
</svg>